<svg viewBox="0 0 76 76" fill="none" xmlns="http://www.w3.org/2000/svg" role="img" aria-label="Build A Booking">
  <defs>
    <linearGradient id="accent" x1="0" y1="76" x2="70" y2="0" gradientUnits="userSpaceOnUse">
      <stop offset="0" stop-color="#39ff14"/>
      <stop offset="0.12" stop-color="#eaff32"/>
      <stop offset="0.24" stop-color="#39ff14"/>
      <stop offset="0.38" stop-color="#12f0cf"/>
      <stop offset="0.52" stop-color="#14a7ff"/>
      <stop offset="0.66" stop-color="#755cff"/>
      <stop offset="0.8" stop-color="#ff4fd8"/>
      <stop offset="0.88" stop-color="#755cff"/>
      <stop offset="0.94" stop-color="#14a7ff"/>
      <stop offset="0.98" stop-color="#12f0cf"/>
      <stop offset="1" stop-color="#39ff14"/>
    </linearGradient>
  </defs>
  <rect width="76" height="76" rx="18" fill="white"/>
  <g stroke="url(#accent)" stroke-linecap="round" stroke-linejoin="round">
    <path d="M20 13v50" stroke-width="5.2"/>
    <path d="M20 13.5h22.2c9.6 0 16.4 6.2 16.4 14.5S51.8 42.5 42 42.5H20" stroke-width="5.2"/>
    <path d="M30.4 42.5h15.2c10.2 0 17.2 6.1 17.2 15.1 0 8.8-6.9 14.9-17.2 14.9H20" stroke-width="5.2"/>
    <path d="M8.5 28.2h15.2" stroke-width="4.4"/>
    <path d="M8.5 52.2h15.2" stroke-width="4.4"/>
  </g>
  <g transform="translate(11 40)">
    <rect x="0.5" y="0.5" width="29" height="24" rx="7" stroke="url(#accent)" stroke-width="3.2"/>
    <path d="M7.4 0.5v-5M22.6 0.5v-5" stroke="url(#accent)" stroke-width="3.2" stroke-linecap="round"/>
    <path d="M8.4 13.1l4.7 4.8 9.5-10.1" stroke="url(#accent)" stroke-width="3.5" stroke-linecap="round" stroke-linejoin="round"/>
  </g>
</svg>
